<?xml version="1.0" encoding="UTF-8" standalone="no"?>
<!DOCTYPE svg PUBLIC "-//W3C//DTD SVG 1.1//EN"
 "http://www.w3.org/Graphics/SVG/1.1/DTD/svg11.dtd">
<!-- Generated by graphviz version 14.0.4 (20251115.1723)
 -->
<!-- Title: architecture Pages: 1 -->
<svg width="450pt" height="259pt"
 viewBox="0.00 0.00 450.00 259.00" xmlns="http://www.w3.org/2000/svg" xmlns:xlink="http://www.w3.org/1999/xlink">
<g id="graph0" class="graph" transform="scale(1 1) rotate(0) translate(4 254.5)">
<title>architecture</title>
<polygon fill="white" stroke="none" points="-4,4 -4,-254.5 446,-254.5 446,4 -4,4"/>
<g id="clust1" class="cluster">
<title>cluster_host</title>
<path fill="#f7f9fc" stroke="#8899bb" d="M20,-8C20,-8 328,-8 328,-8 334,-8 340,-14 340,-20 340,-20 340,-230.5 340,-230.5 340,-236.5 334,-242.5 328,-242.5 328,-242.5 20,-242.5 20,-242.5 14,-242.5 8,-236.5 8,-230.5 8,-230.5 8,-20 8,-20 8,-14 14,-8 20,-8"/>
<text xml:space="preserve" text-anchor="middle" x="174" y="-225.2" font-family="Helvetica,sans-Serif" font-size="14.00">Host — macOS / Linux / Windows</text>
</g>
<g id="clust2" class="cluster">
<title>cluster_py</title>
<path fill="#eef3fb" stroke="#aabbcc" d="M84,-136.5C84,-136.5 320,-136.5 320,-136.5 326,-136.5 332,-142.5 332,-148.5 332,-148.5 332,-199.5 332,-199.5 332,-205.5 326,-211.5 320,-211.5 320,-211.5 84,-211.5 84,-211.5 78,-211.5 72,-205.5 72,-199.5 72,-199.5 72,-148.5 72,-148.5 72,-142.5 78,-136.5 84,-136.5"/>
<text xml:space="preserve" text-anchor="middle" x="202" y="-194.2" font-family="Helvetica,sans-Serif" font-size="14.00">Python venv — RAG scripts</text>
</g>
<g id="clust3" class="cluster">
<title>cluster_docker</title>
<path fill="#fef6e7" stroke="#cc9900" d="M230,-16C230,-16 320,-16 320,-16 326,-16 332,-22 332,-28 332,-28 332,-87 332,-87 332,-93 326,-99 320,-99 320,-99 230,-99 230,-99 224,-99 218,-93 218,-87 218,-87 218,-28 218,-28 218,-22 224,-16 230,-16"/>
<text xml:space="preserve" text-anchor="middle" x="275" y="-81.7" font-family="Helvetica,sans-Serif" font-size="14.00">Docker</text>
</g>
<!-- ingest -->
<g id="node1" class="node">
<title>ingest</title>
<path fill="#eef3fb" stroke="black" d="M126.38,-180.5C126.38,-180.5 91.62,-180.5 91.62,-180.5 85.62,-180.5 79.62,-174.5 79.62,-168.5 79.62,-168.5 79.62,-156.5 79.62,-156.5 79.62,-150.5 85.62,-144.5 91.62,-144.5 91.62,-144.5 126.38,-144.5 126.38,-144.5 132.38,-144.5 138.38,-150.5 138.38,-156.5 138.38,-156.5 138.38,-168.5 138.38,-168.5 138.38,-174.5 132.38,-180.5 126.38,-180.5"/>
<text xml:space="preserve" text-anchor="middle" x="109" y="-158.05" font-family="Helvetica,sans-Serif" font-size="11.00">ingest.py</text>
</g>
<!-- ollama -->
<g id="node4" class="node">
<title>ollama</title>
<path fill="#e7f7ee" stroke="black" d="M195.75,-64C195.75,-64 28.25,-64 28.25,-64 22.25,-64 16.25,-58 16.25,-52 16.25,-52 16.25,-40 16.25,-40 16.25,-34 22.25,-28 28.25,-28 28.25,-28 195.75,-28 195.75,-28 201.75,-28 207.75,-34 207.75,-40 207.75,-40 207.75,-52 207.75,-52 207.75,-58 201.75,-64 195.75,-64"/>
<text xml:space="preserve" text-anchor="middle" x="112" y="-47.55" font-family="Helvetica,sans-Serif" font-size="11.00">Ollama — native (GPU) or in Docker</text>
<text xml:space="preserve" text-anchor="middle" x="112" y="-35.55" font-family="Helvetica,sans-Serif" font-size="11.00">gemma2:2b + nomic&#45;embed&#45;text</text>
</g>
<!-- ingest&#45;&gt;ollama -->
<g id="edge1" class="edge">
<title>ingest&#45;&gt;ollama</title>
<path fill="none" stroke="#555566" d="M88.15,-144.11C83.42,-138.98 79.05,-132.98 76.5,-126.5 73.33,-118.43 74.21,-115.36 76.5,-107 79.69,-95.36 85.78,-83.68 92.03,-73.76"/>
<polygon fill="#555566" stroke="#555566" points="94.74,-76.01 97.39,-65.75 88.92,-72.11 94.74,-76.01"/>
<text xml:space="preserve" text-anchor="middle" x="90.75" y="-113.08" font-family="Helvetica,sans-Serif" font-size="9.00">embed</text>
</g>
<!-- pg -->
<g id="node5" class="node">
<title>pg</title>
<path fill="#e7f7ee" stroke="black" d="M323.88,-64C323.88,-66.21 301.97,-68 275,-68 248.03,-68 226.12,-66.21 226.12,-64 226.12,-64 226.12,-28 226.12,-28 226.12,-25.79 248.03,-24 275,-24 301.97,-24 323.88,-25.79 323.88,-28 323.88,-28 323.88,-64 323.88,-64"/>
<path fill="none" stroke="black" d="M323.88,-64C323.88,-61.79 301.97,-60 275,-60 248.03,-60 226.12,-61.79 226.12,-64"/>
<text xml:space="preserve" text-anchor="middle" x="275" y="-47.55" font-family="Helvetica,sans-Serif" font-size="11.00">pgvector</text>
<text xml:space="preserve" text-anchor="middle" x="275" y="-35.55" font-family="Helvetica,sans-Serif" font-size="11.00">(PostgreSQL 16)</text>
</g>
<!-- ingest&#45;&gt;pg -->
<g id="edge3" class="edge">
<title>ingest&#45;&gt;pg</title>
<path fill="none" stroke="#555566" d="M109.89,-144.18C111.51,-131.8 115.81,-115.83 127,-107 143.63,-93.88 202.74,-107.83 222,-99 233.19,-93.87 243.4,-85.33 251.82,-76.64"/>
<polygon fill="#555566" stroke="#555566" points="254.17,-79.26 258.29,-69.49 248.98,-74.56 254.17,-79.26"/>
<text xml:space="preserve" text-anchor="middle" x="143.5" y="-113.08" font-family="Helvetica,sans-Serif" font-size="9.00">INSERT</text>
</g>
<!-- query -->
<g id="node2" class="node">
<title>query</title>
<path fill="#eef3fb" stroke="black" d="M201.62,-180.5C201.62,-180.5 168.38,-180.5 168.38,-180.5 162.38,-180.5 156.38,-174.5 156.38,-168.5 156.38,-168.5 156.38,-156.5 156.38,-156.5 156.38,-150.5 162.38,-144.5 168.38,-144.5 168.38,-144.5 201.62,-144.5 201.62,-144.5 207.62,-144.5 213.62,-150.5 213.62,-156.5 213.62,-156.5 213.62,-168.5 213.62,-168.5 213.62,-174.5 207.62,-180.5 201.62,-180.5"/>
<text xml:space="preserve" text-anchor="middle" x="185" y="-158.05" font-family="Helvetica,sans-Serif" font-size="11.00">query.py</text>
</g>
<!-- query&#45;&gt;ollama -->
<g id="edge2" class="edge">
<title>query&#45;&gt;ollama</title>
<path fill="none" stroke="#555566" d="M178.78,-144.21C174.48,-133.19 168.24,-118.81 161,-107 153.72,-95.12 144.3,-83.02 135.67,-72.83"/>
<polygon fill="#555566" stroke="#555566" points="138.56,-70.82 129.36,-65.57 133.27,-75.41 138.56,-70.82"/>
<text xml:space="preserve" text-anchor="middle" x="206.93" y="-117.95" font-family="Helvetica,sans-Serif" font-size="9.00">embed / generate</text>
<text xml:space="preserve" text-anchor="middle" x="206.93" y="-108.2" font-family="Helvetica,sans-Serif" font-size="9.00">(HTTP :11434)</text>
</g>
<!-- query&#45;&gt;pg -->
<g id="edge4" class="edge">
<title>query&#45;&gt;pg</title>
<path fill="none" stroke="#555566" d="M209.34,-144.02C213.76,-141.28 218.42,-138.64 223,-136.5 236.88,-130 245.49,-137.65 256,-126.5 267.82,-113.95 272.7,-95.4 274.57,-79.38"/>
<polygon fill="#555566" stroke="#555566" points="278.03,-80.03 275.33,-69.79 271.05,-79.48 278.03,-80.03"/>
<text xml:space="preserve" text-anchor="middle" x="288.92" y="-113.08" font-family="Helvetica,sans-Serif" font-size="9.00">SQL :5432</text>
</g>
<!-- cloud -->
<g id="node6" class="node">
<title>cloud</title>
<polygon fill="#fdecea" stroke="black" stroke-dasharray="5,2" points="436,-64 348,-64 348,-28 442,-28 442,-58 436,-64"/>
<polyline fill="none" stroke="black" stroke-dasharray="5,2" points="436,-64 436,-58"/>
<polyline fill="none" stroke="black" stroke-dasharray="5,2" points="442,-58 436,-58"/>
<text xml:space="preserve" text-anchor="middle" x="395" y="-41.55" font-family="Helvetica,sans-Serif" font-size="11.00">Cloud LLM APIs</text>
</g>
<!-- query&#45;&gt;cloud -->
<g id="edge5" class="edge">
<title>query&#45;&gt;cloud</title>
<path fill="none" stroke="#c0392b" stroke-dasharray="5,2" d="M207.79,-144.05C212.6,-141.09 217.8,-138.37 223,-136.5 261.28,-122.71 277.24,-143.93 314,-126.5 339.17,-114.57 361.24,-91.57 375.96,-73.37"/>
<polygon fill="#c0392b" stroke="#c0392b" points="378.65,-75.61 382.03,-65.57 373.13,-71.31 378.65,-75.61"/>
<text xml:space="preserve" text-anchor="middle" x="362.59" y="-113.08" font-family="Helvetica,sans-Serif" font-size="9.00" fill="#c0392b">no egress</text>
</g>
<!-- demo -->
<g id="node3" class="node">
<title>demo</title>
<path fill="#eef3fb" stroke="black" d="M311.88,-180.5C311.88,-180.5 244.12,-180.5 244.12,-180.5 238.12,-180.5 232.12,-174.5 232.12,-168.5 232.12,-168.5 232.12,-156.5 232.12,-156.5 232.12,-150.5 238.12,-144.5 244.12,-144.5 244.12,-144.5 311.88,-144.5 311.88,-144.5 317.88,-144.5 323.88,-150.5 323.88,-156.5 323.88,-156.5 323.88,-168.5 323.88,-168.5 323.88,-174.5 317.88,-180.5 311.88,-180.5"/>
<text xml:space="preserve" text-anchor="middle" x="278" y="-164.05" font-family="Helvetica,sans-Serif" font-size="11.00">demo_qa.py /</text>
<text xml:space="preserve" text-anchor="middle" x="278" y="-152.05" font-family="Helvetica,sans-Serif" font-size="11.00">attack_demo.py</text>
</g>
</g>
</svg>
