<?xml version="1.0" encoding="UTF-8" standalone="no"?>
<!DOCTYPE svg PUBLIC "-//W3C//DTD SVG 1.1//EN"
 "http://www.w3.org/Graphics/SVG/1.1/DTD/svg11.dtd">
<!-- Generated by graphviz version 14.0.4 (20251115.1723)
 -->
<!-- Title: workflow Pages: 1 -->
<svg width="366pt" height="803pt"
 viewBox="0.00 0.00 366.00 803.00" xmlns="http://www.w3.org/2000/svg" xmlns:xlink="http://www.w3.org/1999/xlink">
<g id="graph0" class="graph" transform="scale(1 1) rotate(0) translate(4 798.5)">
<title>workflow</title>
<polygon fill="white" stroke="none" points="-4,4 -4,-798.5 362.12,-798.5 362.12,4 -4,4"/>
<g id="clust1" class="cluster">
<title>cluster_ingest</title>
<path fill="none" stroke="#8899bb" stroke-dasharray="5,2" d="M28.12,-544.5C28.12,-544.5 164.12,-544.5 164.12,-544.5 170.12,-544.5 176.12,-550.5 176.12,-556.5 176.12,-556.5 176.12,-774.5 176.12,-774.5 176.12,-780.5 170.12,-786.5 164.12,-786.5 164.12,-786.5 28.12,-786.5 28.12,-786.5 22.12,-786.5 16.12,-780.5 16.12,-774.5 16.12,-774.5 16.12,-556.5 16.12,-556.5 16.12,-550.5 22.12,-544.5 28.12,-544.5"/>
<text xml:space="preserve" text-anchor="middle" x="96.12" y="-769.2" font-family="Helvetica,sans-Serif" font-size="14.00">Ingestion (offline)</text>
</g>
<g id="clust2" class="cluster">
<title>cluster_query</title>
<path fill="none" stroke="#8899bb" stroke-dasharray="5,2" d="M212.12,-8C212.12,-8 338.12,-8 338.12,-8 344.12,-8 350.12,-14 350.12,-20 350.12,-20 350.12,-607.5 350.12,-607.5 350.12,-613.5 344.12,-619.5 338.12,-619.5 338.12,-619.5 212.12,-619.5 212.12,-619.5 206.12,-619.5 200.12,-613.5 200.12,-607.5 200.12,-607.5 200.12,-20 200.12,-20 200.12,-14 206.12,-8 212.12,-8"/>
<text xml:space="preserve" text-anchor="middle" x="275.12" y="-602.2" font-family="Helvetica,sans-Serif" font-size="14.00">Query (online)</text>
</g>
<!-- docs -->
<g id="node1" class="node">
<title>docs</title>
<path fill="#eef3fb" stroke="black" d="M146.5,-755.5C146.5,-755.5 45.75,-755.5 45.75,-755.5 39.75,-755.5 33.75,-749.5 33.75,-743.5 33.75,-743.5 33.75,-731.5 33.75,-731.5 33.75,-725.5 39.75,-719.5 45.75,-719.5 45.75,-719.5 146.5,-719.5 146.5,-719.5 152.5,-719.5 158.5,-725.5 158.5,-731.5 158.5,-731.5 158.5,-743.5 158.5,-743.5 158.5,-749.5 152.5,-755.5 146.5,-755.5"/>
<text xml:space="preserve" text-anchor="middle" x="96.12" y="-739.05" font-family="Helvetica,sans-Serif" font-size="11.00">Documents</text>
<text xml:space="preserve" text-anchor="middle" x="96.12" y="-727.05" font-family="Helvetica,sans-Serif" font-size="11.00">(curated + HF sample)</text>
</g>
<!-- chunk -->
<g id="node2" class="node">
<title>chunk</title>
<path fill="#eef3fb" stroke="black" d="M144.62,-682.5C144.62,-682.5 47.62,-682.5 47.62,-682.5 41.63,-682.5 35.62,-676.5 35.62,-670.5 35.62,-670.5 35.62,-658.5 35.62,-658.5 35.62,-652.5 41.62,-646.5 47.62,-646.5 47.62,-646.5 144.62,-646.5 144.62,-646.5 150.62,-646.5 156.62,-652.5 156.62,-658.5 156.62,-658.5 156.62,-670.5 156.62,-670.5 156.62,-676.5 150.62,-682.5 144.62,-682.5"/>
<text xml:space="preserve" text-anchor="middle" x="96.12" y="-666.05" font-family="Helvetica,sans-Serif" font-size="11.00">Chunk</text>
<text xml:space="preserve" text-anchor="middle" x="96.12" y="-654.05" font-family="Helvetica,sans-Serif" font-size="11.00">(~200&#45;word windows)</text>
</g>
<!-- docs&#45;&gt;chunk -->
<g id="edge1" class="edge">
<title>docs&#45;&gt;chunk</title>
<path fill="none" stroke="#555566" d="M96.12,-719.31C96.12,-711.73 96.12,-702.6 96.12,-694.04"/>
<polygon fill="#555566" stroke="#555566" points="99.63,-694.04 96.13,-684.04 92.63,-694.04 99.63,-694.04"/>
</g>
<!-- emb1 -->
<g id="node3" class="node">
<title>emb1</title>
<path fill="#eef3fb" stroke="black" d="M155.88,-588.5C155.88,-588.5 36.38,-588.5 36.38,-588.5 30.38,-588.5 24.38,-582.5 24.38,-576.5 24.38,-576.5 24.38,-564.5 24.38,-564.5 24.38,-558.5 30.38,-552.5 36.38,-552.5 36.38,-552.5 155.88,-552.5 155.88,-552.5 161.88,-552.5 167.88,-558.5 167.88,-564.5 167.88,-564.5 167.88,-576.5 167.88,-576.5 167.88,-582.5 161.88,-588.5 155.88,-588.5"/>
<text xml:space="preserve" text-anchor="middle" x="96.12" y="-572.05" font-family="Helvetica,sans-Serif" font-size="11.00">Embed</text>
<text xml:space="preserve" text-anchor="middle" x="96.12" y="-560.05" font-family="Helvetica,sans-Serif" font-size="11.00">(nomic&#45;embed&#45;text, 768&#45;d)</text>
</g>
<!-- chunk&#45;&gt;emb1 -->
<g id="edge2" class="edge">
<title>chunk&#45;&gt;emb1</title>
<path fill="none" stroke="#555566" d="M96.12,-646.2C96.12,-633.22 96.12,-615.16 96.12,-600.06"/>
<polygon fill="#555566" stroke="#555566" points="99.63,-600.24 96.13,-590.24 92.63,-600.24 99.63,-600.24"/>
</g>
<!-- store -->
<g id="node4" class="node">
<title>store</title>
<path fill="#e7f7ee" stroke="black" d="M192.25,-502.75C192.25,-504.96 149.17,-506.75 96.12,-506.75 43.08,-506.75 0,-504.96 0,-502.75 0,-502.75 0,-466.75 0,-466.75 0,-464.54 43.08,-462.75 96.12,-462.75 149.17,-462.75 192.25,-464.54 192.25,-466.75 192.25,-466.75 192.25,-502.75 192.25,-502.75"/>
<path fill="none" stroke="black" d="M192.25,-502.75C192.25,-500.54 149.17,-498.75 96.12,-498.75 43.08,-498.75 0,-500.54 0,-502.75"/>
<text xml:space="preserve" text-anchor="middle" x="96.12" y="-486.3" font-family="Helvetica,sans-Serif" font-size="11.00">pgvector store</text>
<text xml:space="preserve" text-anchor="middle" x="96.12" y="-474.3" font-family="Helvetica,sans-Serif" font-size="11.00">(docs: content + embedding + origin)</text>
</g>
<!-- emb1&#45;&gt;store -->
<g id="edge3" class="edge">
<title>emb1&#45;&gt;store</title>
<path fill="none" stroke="#555566" d="M96.12,-552.15C96.12,-542.47 96.12,-530.11 96.12,-518.67"/>
<polygon fill="#555566" stroke="#555566" points="99.63,-518.76 96.13,-508.76 92.63,-518.76 99.63,-518.76"/>
<text xml:space="preserve" text-anchor="middle" x="112.62" y="-525.95" font-family="Helvetica,sans-Serif" font-size="9.00">INSERT</text>
</g>
<!-- search -->
<g id="node7" class="node">
<title>search</title>
<path fill="#eef3fb" stroke="black" d="M308.12,-417C308.12,-417 220.12,-417 220.12,-417 214.12,-417 208.12,-411 208.12,-405 208.12,-405 208.12,-393 208.12,-393 208.12,-387 214.12,-381 220.12,-381 220.12,-381 308.12,-381 308.12,-381 314.12,-381 320.12,-387 320.12,-393 320.12,-393 320.12,-405 320.12,-405 320.12,-411 314.12,-417 308.12,-417"/>
<text xml:space="preserve" text-anchor="middle" x="264.12" y="-400.55" font-family="Helvetica,sans-Serif" font-size="11.00">Cosine top&#45;k search</text>
<text xml:space="preserve" text-anchor="middle" x="264.12" y="-388.55" font-family="Helvetica,sans-Serif" font-size="11.00">(embedding &lt;=&gt; q)</text>
</g>
<!-- store&#45;&gt;search -->
<g id="edge11" class="edge">
<title>store&#45;&gt;search</title>
<path fill="none" stroke="#555566" d="M138.95,-462.4C163.45,-450.19 194.16,-434.88 219.02,-422.48"/>
<polygon fill="#555566" stroke="#555566" points="220.55,-425.63 227.94,-418.04 217.42,-419.37 220.55,-425.63"/>
<text xml:space="preserve" text-anchor="middle" x="208.93" y="-436.2" font-family="Helvetica,sans-Serif" font-size="9.00">k nearest</text>
</g>
<!-- q -->
<g id="node5" class="node">
<title>q</title>
<path fill="#eef3fb" stroke="black" d="M293.5,-588.5C293.5,-588.5 234.75,-588.5 234.75,-588.5 228.75,-588.5 222.75,-582.5 222.75,-576.5 222.75,-576.5 222.75,-564.5 222.75,-564.5 222.75,-558.5 228.75,-552.5 234.75,-552.5 234.75,-552.5 293.5,-552.5 293.5,-552.5 299.5,-552.5 305.5,-558.5 305.5,-564.5 305.5,-564.5 305.5,-576.5 305.5,-576.5 305.5,-582.5 299.5,-588.5 293.5,-588.5"/>
<text xml:space="preserve" text-anchor="middle" x="264.12" y="-566.05" font-family="Helvetica,sans-Serif" font-size="11.00">User question</text>
</g>
<!-- emb2 -->
<g id="node6" class="node">
<title>emb2</title>
<path fill="#eef3fb" stroke="black" d="M299.12,-502.75C299.12,-502.75 229.12,-502.75 229.12,-502.75 223.12,-502.75 217.12,-496.75 217.12,-490.75 217.12,-490.75 217.12,-478.75 217.12,-478.75 217.12,-472.75 223.12,-466.75 229.12,-466.75 229.12,-466.75 299.12,-466.75 299.12,-466.75 305.12,-466.75 311.12,-472.75 311.12,-478.75 311.12,-478.75 311.12,-490.75 311.12,-490.75 311.12,-496.75 305.12,-502.75 299.12,-502.75"/>
<text xml:space="preserve" text-anchor="middle" x="264.12" y="-480.3" font-family="Helvetica,sans-Serif" font-size="11.00">Embed question</text>
</g>
<!-- q&#45;&gt;emb2 -->
<g id="edge4" class="edge">
<title>q&#45;&gt;emb2</title>
<path fill="none" stroke="#555566" d="M264.12,-552.15C264.12,-541.25 264.12,-526.94 264.12,-514.4"/>
<polygon fill="#555566" stroke="#555566" points="267.63,-514.59 264.13,-504.59 260.63,-514.59 267.63,-514.59"/>
</g>
<!-- emb2&#45;&gt;search -->
<g id="edge5" class="edge">
<title>emb2&#45;&gt;search</title>
<path fill="none" stroke="#555566" d="M264.12,-466.4C264.12,-455.5 264.12,-441.19 264.12,-428.65"/>
<polygon fill="#555566" stroke="#555566" points="267.63,-428.84 264.13,-418.84 260.63,-428.84 267.63,-428.84"/>
</g>
<!-- vet -->
<g id="node8" class="node">
<title>vet</title>
<path fill="#fdecea" stroke="black" d="M314.88,-344C314.88,-344 225.38,-344 225.38,-344 219.38,-344 213.38,-338 213.38,-332 213.38,-332 213.38,-320 213.38,-320 213.38,-314 219.38,-308 225.38,-308 225.38,-308 314.88,-308 314.88,-308 320.88,-308 326.88,-314 326.88,-320 326.88,-320 326.88,-332 326.88,-332 326.88,-338 320.88,-344 314.88,-344"/>
<text xml:space="preserve" text-anchor="middle" x="270.12" y="-327.55" font-family="Helvetica,sans-Serif" font-size="11.00">Source vetting</text>
<text xml:space="preserve" text-anchor="middle" x="270.12" y="-315.55" font-family="Helvetica,sans-Serif" font-size="11.00">(trusted origins only)</text>
</g>
<!-- search&#45;&gt;vet -->
<g id="edge6" class="edge">
<title>search&#45;&gt;vet</title>
<path fill="none" stroke="#555566" d="M265.58,-380.81C266.23,-373.14 267.01,-363.89 267.74,-355.24"/>
<polygon fill="#555566" stroke="#555566" points="271.2,-355.8 268.56,-345.54 264.23,-355.21 271.2,-355.8"/>
</g>
<!-- prompt -->
<g id="node9" class="node">
<title>prompt</title>
<path fill="#eef3fb" stroke="black" d="M316.75,-271C316.75,-271 229.5,-271 229.5,-271 223.5,-271 217.5,-265 217.5,-259 217.5,-259 217.5,-247 217.5,-247 217.5,-241 223.5,-235 229.5,-235 229.5,-235 316.75,-235 316.75,-235 322.75,-235 328.75,-241 328.75,-247 328.75,-247 328.75,-259 328.75,-259 328.75,-265 322.75,-271 316.75,-271"/>
<text xml:space="preserve" text-anchor="middle" x="273.12" y="-254.55" font-family="Helvetica,sans-Serif" font-size="11.00">Build prompt</text>
<text xml:space="preserve" text-anchor="middle" x="273.12" y="-242.55" font-family="Helvetica,sans-Serif" font-size="11.00">(context + question)</text>
</g>
<!-- vet&#45;&gt;prompt -->
<g id="edge7" class="edge">
<title>vet&#45;&gt;prompt</title>
<path fill="none" stroke="#555566" d="M270.85,-307.81C271.18,-300.14 271.57,-290.89 271.93,-282.24"/>
<polygon fill="#555566" stroke="#555566" points="275.42,-282.68 272.34,-272.54 268.42,-282.38 275.42,-282.68"/>
</g>
<!-- llm -->
<g id="node10" class="node">
<title>llm</title>
<path fill="#eef3fb" stroke="black" d="M330,-198C330,-198 220.25,-198 220.25,-198 214.25,-198 208.25,-192 208.25,-186 208.25,-186 208.25,-174 208.25,-174 208.25,-168 214.25,-162 220.25,-162 220.25,-162 330,-162 330,-162 336,-162 342,-168 342,-174 342,-174 342,-186 342,-186 342,-192 336,-198 330,-198"/>
<text xml:space="preserve" text-anchor="middle" x="275.12" y="-181.55" font-family="Helvetica,sans-Serif" font-size="11.00">LLM answer</text>
<text xml:space="preserve" text-anchor="middle" x="275.12" y="-169.55" font-family="Helvetica,sans-Serif" font-size="11.00">(gemma2:2b via Ollama)</text>
</g>
<!-- prompt&#45;&gt;llm -->
<g id="edge8" class="edge">
<title>prompt&#45;&gt;llm</title>
<path fill="none" stroke="#555566" d="M273.61,-234.81C273.83,-227.14 274.09,-217.89 274.33,-209.24"/>
<polygon fill="#555566" stroke="#555566" points="277.82,-209.64 274.6,-199.54 270.82,-209.44 277.82,-209.64"/>
</g>
<!-- filt -->
<g id="node11" class="node">
<title>filt</title>
<path fill="#fdecea" stroke="black" d="M308.62,-125C308.62,-125 241.62,-125 241.62,-125 235.62,-125 229.62,-119 229.62,-113 229.62,-113 229.62,-101 229.62,-101 229.62,-95 235.62,-89 241.62,-89 241.62,-89 308.62,-89 308.62,-89 314.62,-89 320.62,-95 320.62,-101 320.62,-101 320.62,-113 320.62,-113 320.62,-119 314.62,-125 308.62,-125"/>
<text xml:space="preserve" text-anchor="middle" x="275.12" y="-108.55" font-family="Helvetica,sans-Serif" font-size="11.00">Output filter</text>
<text xml:space="preserve" text-anchor="middle" x="275.12" y="-96.55" font-family="Helvetica,sans-Serif" font-size="11.00">(redact secrets)</text>
</g>
<!-- llm&#45;&gt;filt -->
<g id="edge9" class="edge">
<title>llm&#45;&gt;filt</title>
<path fill="none" stroke="#555566" d="M275.12,-161.81C275.12,-154.23 275.12,-145.1 275.12,-136.54"/>
<polygon fill="#555566" stroke="#555566" points="278.63,-136.54 275.13,-126.54 271.63,-136.54 278.63,-136.54"/>
</g>
<!-- ans -->
<g id="node12" class="node">
<title>ans</title>
<path fill="#fff6db" stroke="black" d="M314.62,-52C314.62,-52 235.62,-52 235.62,-52 229.62,-52 223.62,-46 223.62,-40 223.62,-40 223.62,-28 223.62,-28 223.62,-22 229.62,-16 235.62,-16 235.62,-16 314.62,-16 314.62,-16 320.62,-16 326.62,-22 326.62,-28 326.62,-28 326.62,-40 326.62,-40 326.62,-46 320.62,-52 314.62,-52"/>
<text xml:space="preserve" text-anchor="middle" x="275.12" y="-29.55" font-family="Helvetica,sans-Serif" font-size="11.00">Answer + sources</text>
</g>
<!-- filt&#45;&gt;ans -->
<g id="edge10" class="edge">
<title>filt&#45;&gt;ans</title>
<path fill="none" stroke="#555566" d="M275.12,-88.81C275.12,-81.23 275.12,-72.1 275.12,-63.54"/>
<polygon fill="#555566" stroke="#555566" points="278.63,-63.54 275.13,-53.54 271.63,-63.54 278.63,-63.54"/>
</g>
<!-- legend -->
<g id="node13" class="node">
<title>legend</title>
<polygon fill="#fdecea" stroke="black" points="278.5,-755.5 183.75,-755.5 183.75,-719.5 284.5,-719.5 284.5,-749.5 278.5,-755.5"/>
<polyline fill="none" stroke="black" points="278.5,-755.5 278.5,-749.5"/>
<polyline fill="none" stroke="black" points="284.5,-749.5 278.5,-749.5"/>
<text xml:space="preserve" text-anchor="middle" x="234.12" y="-738.7" font-family="Helvetica,sans-Serif" font-size="9.00">red = security control</text>
<text xml:space="preserve" text-anchor="middle" x="234.12" y="-728.95" font-family="Helvetica,sans-Serif" font-size="9.00">(defense&#45;in&#45;depth)</text>
</g>
</g>
</svg>
